<?xml version="1.0" encoding="UTF-8" standalone="no"?>
<!-- Created with Inkscape (http://www.inkscape.org/) -->

<svg
   width="256mm"
   height="256mm"
   viewBox="0 0 256 256"
   version="1.1"
   id="svg1"
   xml:space="preserve"
   inkscape:version="1.4.3 (0d15f75, 2025-12-25)"
   sodipodi:docname="seeker-ui.svg"
   xmlns:inkscape="http://www.inkscape.org/namespaces/inkscape"
   xmlns:sodipodi="http://sodipodi.sourceforge.net/DTD/sodipodi-0.dtd"
   xmlns="http://www.w3.org/2000/svg"
   xmlns:svg="http://www.w3.org/2000/svg"><sodipodi:namedview
     id="namedview1"
     pagecolor="#ffffff"
     bordercolor="#ff6040"
     borderopacity="0.25"
     inkscape:showpageshadow="2"
     inkscape:pageopacity="0.0"
     inkscape:pagecheckerboard="true"
     inkscape:deskcolor="#d1d1d1"
     inkscape:document-units="mm"
     inkscape:zoom="1.79"
     inkscape:cx="397.2067"
     inkscape:cy="417.31844"
     inkscape:window-width="2956"
     inkscape:window-height="1822"
     inkscape:window-x="2284"
     inkscape:window-y="200"
     inkscape:window-maximized="1"
     inkscape:current-layer="layer1"
     showgrid="false" /><defs
     id="defs1" /><g
     inkscape:label="Layer 1"
     inkscape:groupmode="layer"
     id="layer1"><g
       id="g8"><path
         id="rect7"
         style="fill:#ff6040;fill-opacity:1;stroke-width:0.294791"
         d="m 13.9514,38.84254 c 0.0029,-3.86676 3.180883,-6.32635 6.731311,-6.35 H 48.580688 V 46.499893 H 13.9514 Z"
         sodipodi:nodetypes="cccccc" /><rect
         style="fill:#ff6040;fill-opacity:1;stroke-width:0.243288"
         id="rect8"
         width="14.980086"
         height="35.884602"
         x="13.951401"
         y="45.715446" /></g><g
       id="g2"
       transform="matrix(0.70705315,0,0,0.64777321,-10.580223,0.98051571)"
       style="fill:#ff6040">
	<g
   id="g1">
		<path
   d="M 365.091,140.606 H 347.766 V 10.925 C 347.766,4.913 342.917,0 336.84,0 H 118.4 c -6.012,0 -10.925,4.848 -10.925,10.925 v 123.992 l -22.044,-25.6 c -2.069,-2.392 -5.107,-3.814 -8.275,-3.814 H 27.507 c -6.012,0 -10.925,4.849 -10.925,10.925 v 265.18 c 0,6.012 4.849,10.925 10.925,10.925 h 337.519 c 6.012,0 10.925,-4.849 10.925,-10.925 V 151.467 c 10e-4,-5.883 -4.848,-10.861 -10.86,-10.861 z M 129.325,21.85 H 325.98 V 140.606 H 129.325 Z M 354.101,370.877 H 38.432 v -0.065 -243.394 h 33.745 l 26.893,31.289 c 2.069,2.392 5.107,3.814 8.275,3.814 h 246.756 z"
   id="path1" />
	</g>
</g><g
       id="g4"
       transform="matrix(0.70705315,0,0,0.64777321,-10.580223,0.98051571)"
       style="fill:#ff6040">
	<g
   id="g3">
		<path
   d="M 293.269,43.636 H 162.036 c -6.012,0 -10.925,4.849 -10.925,10.925 0,6.077 4.849,10.925 10.925,10.925 h 131.232 c 6.012,0 10.925,-4.849 10.925,-10.925 0.001,-6.076 -4.912,-10.925 -10.924,-10.925 z"
   id="path2" />
	</g>
</g><g
       id="g6"
       transform="matrix(0.70705315,0,0,0.64777321,-10.580223,0.98051571)"
       style="fill:#ff6040">
	<g
   id="g5">
		<path
   d="M 293.269,87.273 H 162.036 c -6.012,0 -10.925,4.849 -10.925,10.925 0,6.077 4.913,10.861 10.925,10.861 h 131.232 c 6.012,0 10.925,-4.849 10.925,-10.925 0.001,-6.077 -4.912,-10.861 -10.924,-10.861 z"
   id="path4" />
	</g>
</g><path
       d="m 166.15964,138.071 v 74.44648 H 93.918007 V 138.071 Z m -41.83541,18.61161 h -7.03554 l -13.3573,37.22325 h 6.34727 l 2.52179,-7.27685 h 15.98967 l 2.46767,7.27685 h 6.72963 z m 24.93024,0 h -6.32179 v 37.22325 h 6.32179 z m -28.50132,6.24515 6.29696,18.57025 h -12.49384 z m 51.42662,30.9781 h 12.04027 v 12.40775 H 172.17977 Z M 99.938137,218.72135 H 111.97842 V 231.1291 H 99.938137 Z m 24.080553,0 h 12.04027 V 231.1291 H 124.01869 Z M 99.938137,119.45938 h 12.040283 v 12.40774 H 99.938137 Z m 48.161093,99.26197 h 12.04027 v 12.40775 h -12.04027 z m -24.08054,-99.26197 h 12.04027 v 12.40774 h -12.04027 z m 24.08054,0 h 12.04027 v 12.40774 h -12.04027 z m 24.08054,49.63098 h 12.04027 v 12.40775 h -12.04027 z m -96.32217,24.8155 h 12.040272 v 12.40775 H 75.8576 Z m 96.32217,-49.63099 h 12.04027 v 12.40774 H 172.17977 Z M 75.8576,169.09036 h 12.040272 v 12.40775 H 75.8576 Z m 0,-24.81549 h 12.040272 v 12.40774 H 75.8576 Z"
       id="Combined-Shape"
       style="fill:#ff6040;fill-rule:evenodd;stroke:none;stroke-width:0.286467" /><g
       id="g7"
       transform="translate(0,4.7625002)"><path
         id="rect7-5"
         style="fill:#ff6040;fill-opacity:1;stroke:none;stroke-width:0.294791"
         d="m 39.204153,17.118098 c 0.0029,-3.86676 3.180883,-6.32635 6.731311,-6.35 H 73.833441 V 24.775451 H 39.204153 Z"
         sodipodi:nodetypes="cccccc" /><rect
         style="fill:#ff6040;stroke-width:0.30066"
         id="rect8-1"
         width="14.980086"
         height="54.804527"
         x="39.204155"
         y="23.991003" /></g></g></svg>
