<?xml version="1.0" encoding="UTF-8" standalone="no"?>
<!-- Uploaded to: SVG Repo, www.svgrepo.com, Generator: SVG Repo Mixer Tools -->

<svg
   fill="#000000"
   height="800px"
   width="800px"
   version="1.1"
   id="Layer_1"
   viewBox="0 0 512 512"
   xml:space="preserve"
   sodipodi:docname="seeker-ui.svg"
   inkscape:version="1.4.3 (0d15f75, 2025-12-25)"
   inkscape:export-filename="seeker-ui.png"
   inkscape:export-xdpi="122.88"
   inkscape:export-ydpi="122.88"
   xmlns:inkscape="http://www.inkscape.org/namespaces/inkscape"
   xmlns:sodipodi="http://sodipodi.sourceforge.net/DTD/sodipodi-0.dtd"
   xmlns="http://www.w3.org/2000/svg"
   xmlns:svg="http://www.w3.org/2000/svg"><defs
   id="defs2" /><sodipodi:namedview
   id="namedview2"
   pagecolor="#ffffff"
   bordercolor="#000000"
   borderopacity="0.25"
   inkscape:showpageshadow="2"
   inkscape:pageopacity="0.0"
   inkscape:pagecheckerboard="0"
   inkscape:deskcolor="#d1d1d1"
   inkscape:zoom="1.03"
   inkscape:cx="400.48544"
   inkscape:cy="399.02913"
   inkscape:window-width="1798"
   inkscape:window-height="1280"
   inkscape:window-x="3274"
   inkscape:window-y="384"
   inkscape:window-maximized="0"
   inkscape:current-layer="Layer_1"
   showgrid="false" />

<g
   id="g2"
   transform="matrix(0.43802339,0,0,0.43802339,31.403484,191.84262)"
   style="fill:#ffff00;fill-opacity:1;stroke:none;stroke-width:0.998788;stroke-dasharray:none;stroke-opacity:1">
	<g
   id="g1"
   style="fill:#ffff00;fill-opacity:1;stroke:none;stroke-width:0.998788;stroke-dasharray:none;stroke-opacity:1">
		<path
   d="M 278.4317,136.39418 174.96058,112.87779 h -0.47014 c -2.82195,-0.47014 -4.70306,-2.3518 -5.17375,-5.64389 L 145.8003,3.7627767 C 145.33016,1.4109724 143.44904,0 141.09724,0 c -2.35181,0 -4.23292,1.4109724 -4.70306,3.7627767 L 112.87779,107.70404 c -0.47014,2.82195 -2.3518,4.70306 -5.64389,5.17375 L 3.7627767,136.39418 C 1.4109724,136.86432 0,138.74543 0,141.09724 c 0,2.3518 1.4109724,4.23292 3.7627767,4.70306 L 107.70404,169.31669 c 2.35181,0.47014 4.70306,2.3518 5.17375,5.64389 l 23.51639,103.47112 c 0.47014,2.3518 2.35125,3.76278 4.70306,3.76278 2.3518,0 4.23292,-1.41098 4.70306,-3.76278 l 23.51639,-103.94126 c 0.47014,-2.82195 2.3518,-4.70306 5.64389,-5.17375 L 278.4317,145.8003 c 2.3518,-0.47014 3.76278,-2.35126 3.76278,-4.70306 0,-2.35181 -1.41098,-4.23292 -3.76278,-4.70306 z m -105.35224,24.45667 c -7.05486,0.94083 -12.22861,6.11403 -13.16889,12.69875 l -19.28347,83.24737 35.94806,-115.45963 c -0.94083,-7.05486 -9.33525,-29.94535 -15.91998,-30.88563 L 25.867643,141.09724 108.64487,121.81377 c 7.05487,-0.94084 55.71517,0.32842 56.65545,-6.25631 l -24.20308,-89.689817 18.81278,83.717507 c 0.94083,6.58473 6.58472,54.10456 13.16889,55.04484 l 83.24737,-22.59247 z"
   id="path1"
   style="fill:#ffff00;fill-opacity:1;stroke:none;stroke-width:0.550493;stroke-dasharray:none;stroke-opacity:1"
   sodipodi:nodetypes="cccccsccccsccccsccccscccccccccccccc" />
	</g>
</g><rect
   style="fill:#ff4040;fill-opacity:1;stroke:#000000;stroke-width:6.99988;stroke-dasharray:none;stroke-opacity:1"
   id="rect2"
   width="149.40675"
   height="149.40675"
   x="-162.64549"
   y="-528.14929"
   transform="rotate(133.78818)" /><rect
   style="fill:#40b440;fill-opacity:1;stroke:#000000;stroke-width:6.99988;stroke-dasharray:none;stroke-opacity:1"
   id="rect2-9"
   width="149.40675"
   height="149.40675"
   x="33.589012"
   y="-528.14929"
   transform="rotate(133.78818)" /><rect
   style="fill:#648cff;fill-opacity:1;stroke:#000000;stroke-width:6.99988;stroke-dasharray:none;stroke-opacity:1"
   id="rect2-9-8"
   width="149.40675"
   height="149.40675"
   x="-162.64549"
   y="-340.2739"
   transform="rotate(133.78818)" /><g
   id="g2-2"
   transform="matrix(0.27068028,0,0,0.27068028,140.94292,255.32272)"
   style="fill:#ffff00;fill-opacity:1;stroke:none;stroke-width:0.998788;stroke-dasharray:none;stroke-opacity:1">
	<g
   id="g1-4"
   style="fill:#ffff00;fill-opacity:1;stroke:none;stroke-width:0.998788;stroke-dasharray:none;stroke-opacity:1">
		<path
   d="M 278.4317,136.39418 174.96058,112.87779 h -0.47014 c -2.82195,-0.47014 -4.70306,-2.3518 -5.17375,-5.64389 L 145.8003,3.7627767 C 145.33016,1.4109724 143.44904,0 141.09724,0 c -2.35181,0 -4.23292,1.4109724 -4.70306,3.7627767 L 112.87779,107.70404 c -0.47014,2.82195 -2.3518,4.70306 -5.64389,5.17375 L 3.7627767,136.39418 C 1.4109724,136.86432 0,138.74543 0,141.09724 c 0,2.3518 1.4109724,4.23292 3.7627767,4.70306 L 107.70404,169.31669 c 2.35181,0.47014 4.70306,2.3518 5.17375,5.64389 l 23.51639,103.47112 c 0.47014,2.3518 2.35125,3.76278 4.70306,3.76278 2.3518,0 4.23292,-1.41098 4.70306,-3.76278 l 23.51639,-103.94126 c 0.47014,-2.82195 2.3518,-4.70306 5.64389,-5.17375 L 278.4317,145.8003 c 2.3518,-0.47014 3.76278,-2.35126 3.76278,-4.70306 0,-2.35181 -1.41098,-4.23292 -3.76278,-4.70306 z m -105.35224,24.45667 c -7.05486,0.94083 -12.22861,6.11403 -13.16889,12.69875 l -19.28347,83.24737 35.94806,-115.45963 c -0.94083,-7.05486 -9.33525,-29.94535 -15.91998,-30.88563 L 25.867643,141.09724 108.64487,121.81377 c 7.05487,-0.94084 55.71517,0.32842 56.65545,-6.25631 l -24.20308,-89.689817 18.81278,83.717507 c 0.94083,6.58473 6.58472,54.10456 13.16889,55.04484 l 83.24737,-22.59247 z"
   id="path1-5"
   style="fill:#ffff00;fill-opacity:1;stroke:none;stroke-width:0.550493;stroke-dasharray:none;stroke-opacity:1"
   sodipodi:nodetypes="cccccsccccsccccsccccscccccccccccccc" />
	</g>
</g><g
   id="g2-2-1"
   transform="matrix(0.21122944,0,0,0.21122944,123.66291,166.65476)"
   style="fill:#ffff00;fill-opacity:1;stroke:none;stroke-width:0.998788;stroke-dasharray:none;stroke-opacity:1">
	<g
   id="g1-4-7"
   style="fill:#ffff00;fill-opacity:1;stroke:none;stroke-width:0.998788;stroke-dasharray:none;stroke-opacity:1">
		<path
   d="M 278.4317,136.39418 174.96058,112.87779 h -0.47014 c -2.82195,-0.47014 -4.70306,-2.3518 -5.17375,-5.64389 L 145.8003,3.7627767 C 145.33016,1.4109724 143.44904,0 141.09724,0 c -2.35181,0 -4.23292,1.4109724 -4.70306,3.7627767 L 112.87779,107.70404 c -0.47014,2.82195 -2.3518,4.70306 -5.64389,5.17375 L 3.7627767,136.39418 C 1.4109724,136.86432 0,138.74543 0,141.09724 c 0,2.3518 1.4109724,4.23292 3.7627767,4.70306 L 107.70404,169.31669 c 2.35181,0.47014 4.70306,2.3518 5.17375,5.64389 l 23.51639,103.47112 c 0.47014,2.3518 2.35125,3.76278 4.70306,3.76278 2.3518,0 4.23292,-1.41098 4.70306,-3.76278 l 23.51639,-103.94126 c 0.47014,-2.82195 2.3518,-4.70306 5.64389,-5.17375 L 278.4317,145.8003 c 2.3518,-0.47014 3.76278,-2.35126 3.76278,-4.70306 0,-2.35181 -1.41098,-4.23292 -3.76278,-4.70306 z m -105.35224,24.45667 c -7.05486,0.94083 -12.22861,6.11403 -13.16889,12.69875 l -19.28347,83.24737 35.94806,-115.45963 c -0.94083,-7.05486 -9.33525,-29.94535 -15.91998,-30.88563 L 25.867643,141.09724 108.64487,121.81377 c 7.05487,-0.94084 55.71517,0.32842 56.65545,-6.25631 l -24.20308,-89.689817 18.81278,83.717507 c 0.94083,6.58473 6.58472,54.10456 13.16889,55.04484 l 83.24737,-22.59247 z"
   id="path1-5-1"
   style="fill:#ffff00;fill-opacity:1;stroke:none;stroke-width:0.550493;stroke-dasharray:none;stroke-opacity:1"
   sodipodi:nodetypes="cccccsccccsccccsccccscccccccccccccc" />
	</g>
</g></svg>
